{
    "asset" : {
        "generator" : "Khronos glTF Blender I/O v3.4.50",
        "version" : "2.0"
    },
    "scene" : 0,
    "scenes" : [
        {
            "name" : "Scene",
            "nodes" : [
                0
            ]
        }
    ],
    "nodes" : [
        {
            "mesh" : 0,
            "name" : "calculadora",
            "scale" : [
                0.8862548470497131,
                2411724.75,
                0.5304389595985413
            ],
            "translation" : [
                7.122352600097656,
                2.450000047683716,
                -12.122515678405762
            ]
        }
    ],
    "materials" : [
        {
            "doubleSided" : true,
            "name" : "Material",
            "pbrMetallicRoughness" : {
                "baseColorFactor" : [
                    0,
                    0.7921294569969177,
                    0.8000000715255737,
                    1
                ],
                "metallicFactor" : 0,
                "roughnessFactor" : 0.5
            }
        }
    ],
    "meshes" : [
        {
            "name" : "Cube.002",
            "primitives" : [
                {
                    "attributes" : {
                        "POSITION" : 0,
                        "TEXCOORD_0" : 1,
                        "NORMAL" : 2
                    },
                    "indices" : 3,
                    "material" : 0
                }
            ]
        }
    ],
    "accessors" : [
        {
            "bufferView" : 0,
            "componentType" : 5126,
            "count" : 547,
            "max" : [
                4.513373851776123,
                9.536742595628311e-07,
                0.4713096618652344
            ],
            "min" : [
                -4.513373851776123,
                -9.536742595628311e-07,
                1.9073486328125e-06
            ],
            "type" : "VEC3"
        },
        {
            "bufferView" : 1,
            "componentType" : 5126,
            "count" : 547,
            "type" : "VEC2"
        },
        {
            "bufferView" : 2,
            "componentType" : 5126,
            "count" : 547,
            "type" : "VEC3"
        },
        {
            "bufferView" : 3,
            "componentType" : 5123,
            "count" : 1134,
            "type" : "SCALAR"
        }
    ],
    "bufferViews" : [
        {
            "buffer" : 0,
            "byteLength" : 6564,
            "byteOffset" : 0,
            "target" : 34962
        },
        {
            "buffer" : 0,
            "byteLength" : 4376,
            "byteOffset" : 6564,
            "target" : 34962
        },
        {
            "buffer" : 0,
            "byteLength" : 6564,
            "byteOffset" : 10940,
            "target" : 34962
        },
        {
            "buffer" : 0,
            "byteLength" : 2268,
            "byteOffset" : 17504,
            "target" : 34963
        }
    ],
    "buffers" : [
        {
            "byteLength" : 19772,
            "uri" : "data:application/octet-stream;base64,"
        }
    ]
}
